<svg width="45" height="45" fill="none" xmlns="http://www.w3.org/2000/svg"><path d="M9.855 0h25.29C40.588 0 45 4.412 45 9.855v25.29C45 40.588 40.588 45 35.145 45H9.855C4.412 45 0 40.588 0 35.145V9.855C0 4.412 4.412 0 9.855 0z" fill="url(#paint0_linear)"/><path d="M14.421 32.662l.005.001-1.539 2.665a2.034 2.034 0 01-3.523-2.034l1.134-1.963.109-.188c.194-.28.673-.761 1.632-.67 0 0 2.257.244 2.42 1.417 0 0 .022.386-.238.772zm21.822-6.806h-4.797c-.327-.022-.47-.139-.526-.207l-.003-.006-5.136-8.896-.007.005-.308-.442c-.505-.772-1.306 1.203-1.306 1.203-.957 2.2.136 4.7.517 5.457l7.133 12.355a2.034 2.034 0 103.523-2.033l-1.784-3.09c-.035-.075-.095-.278.271-.279h2.423a2.034 2.034 0 000-4.067zm-9.318 2.764s.256 1.303-.735 1.303H8.454a2.034 2.034 0 010-4.067h4.56c.736-.043.91-.468.91-.468l.004.002 5.952-10.31h-.002a.455.455 0 00.003-.417l-1.966-3.404a2.034 2.034 0 113.523-2.034l.911 1.579.91-1.576a2.034 2.034 0 013.523 2.033L18.5 25.607c-.037.087-.048.224.222.248h4.95l.002.049s2.86.044 3.25 2.716z" fill="#fff"/><defs><linearGradient id="paint0_linear" x1="22.5" y1="0" x2="22.5" y2="45" gradientUnits="userSpaceOnUse"><stop stop-color="#17C9FB"/><stop offset="1" stop-color="#1A74E8"/></linearGradient></defs></svg>