<svg width="32" height="30" fill="none" xmlns="http://www.w3.org/2000/svg"><path d="M22.335 17.5c.125-.962.218-1.925.218-2.917 0-.991-.093-1.954-.218-2.916h5.257c.25.933.405 1.91.405 2.916 0 1.007-.156 1.984-.405 2.917h-5.257zm-2.753 8.108a21.985 21.985 0 002.147-5.191h4.588c-1.507 2.433-3.898 4.275-6.735 5.191zm-.389-8.108h-7.279a18.163 18.163 0 01-.249-2.917c0-.991.094-1.968.25-2.916h7.278c.14.948.25 1.925.25 2.916 0 .992-.11 1.955-.25 2.917zm-3.64 8.692c-1.29-1.75-2.332-3.69-2.97-5.775h5.941c-.637 2.085-1.68 4.025-2.97 5.775zM9.334 8.75H4.79c1.49-2.44 3.88-4.285 6.719-5.192-.933 1.62-1.633 3.37-2.178 5.192zM4.79 20.417h4.541c.545 1.823 1.245 3.573 2.178 5.191-2.833-.916-5.219-2.76-6.72-5.191zM3.515 17.5a11.314 11.314 0 01-.404-2.917c0-1.006.155-1.983.404-2.916h5.257c-.124.962-.217 1.925-.217 2.916 0 .992.093 1.955.217 2.917H3.515zM15.554 2.96c1.29 1.75 2.333 3.705 2.97 5.79h-5.941c.638-2.085 1.68-4.04 2.97-5.79zm10.763 5.79h-4.588a21.985 21.985 0 00-2.147-5.192c2.862.92 5.242 2.771 6.735 5.192zM15.554 0C6.953 0 0 6.563 0 14.583c0 3.868 1.639 7.577 4.556 10.312a15.66 15.66 0 005.046 3.162c1.887.733 3.91 1.11 5.952 1.11 4.125 0 8.081-1.537 10.998-4.272 2.917-2.735 4.556-6.444 4.556-10.312 0-1.915-.403-3.811-1.184-5.58a14.56 14.56 0 00-3.372-4.732 15.66 15.66 0 00-5.046-3.16A16.456 16.456 0 0015.554 0z" fill="#fff"/></svg>