<svg width="45" height="45" fill="none" xmlns="http://www.w3.org/2000/svg"><path d="M33.187 29.377c5.704-2.927 10.028-5.157 10.4-5.33 1.193-.593 2.424-2.162 0-3.38-.782-.383-4.995-2.544-10.4-5.331l-7.494 7.073 7.494 6.968z" fill="#FFD900"/><path d="M25.693 22.409L1.833 44.883c.56.07 1.192-.07 1.938-.453 1.565-.8 18.156-9.268 29.415-15.051l-7.493-6.97z" fill="#F43249"/><path d="M25.693 22.409l7.493-7.038S5.45 1.224 3.771.388a3.08 3.08 0 00-1.975-.35l23.897 22.37z" fill="#00EE76"/><path d="M25.693 22.409L1.796.039C.826.247.006 1.048.006 2.686v39.548c0 1.499.635 2.578 1.827 2.682l23.86-22.508z" fill="#00D3FF"/></svg>