<svg width="143" height="61" fill="none" xmlns="http://www.w3.org/2000/svg"><path d="M47.208 26.094h-7.715c-1.34 0-2.436-1.107-2.436-2.459 0-1.353 1.096-2.46 2.436-2.46h8.893a2.165 2.165 0 011.502 2.091h5.563c0-.738-.08-1.434-.284-2.09-.893-3.32-3.898-5.738-7.471-5.738h-8.203c-2.923 0-5.644 1.557-7.065 4.14a8.277 8.277 0 00-1.056 4.057c0 1.434.366 2.828 1.056 4.057.325.574.69 1.066 1.096 1.517 1.543 1.64 3.695 2.623 5.97 2.623h7.714c1.34 0 2.396 1.107 2.396 2.46 0 1.352-1.056 2.458-2.396 2.458h-8.811c-.853-.287-1.462-1.106-1.462-2.09h-5.563c0 .738.081 1.434.244 2.09.934 3.32 3.938 5.738 7.512 5.738h8.08c2.883 0 5.604-1.557 7.025-4.098a8.156 8.156 0 001.097-4.099 7.9 7.9 0 00-1.097-4.057c-1.421-2.542-4.142-4.14-7.025-4.14zm27.758 0h-7.715c-1.34 0-2.436-1.107-2.436-2.459 0-1.353 1.096-2.46 2.436-2.46h8.893a2.165 2.165 0 011.502 2.091h5.563c0-.738-.08-1.434-.284-2.09-.893-3.32-3.898-5.738-7.471-5.738H67.25c-2.924 0-5.644 1.557-7.065 4.14a8.277 8.277 0 00-1.056 4.057c0 1.434.365 2.828 1.056 4.057.325.574.69 1.066 1.096 1.517 1.543 1.64 3.695 2.623 5.97 2.623h7.714c1.34 0 2.396 1.107 2.396 2.46 0 1.352-1.056 2.458-2.396 2.458h-8.811c-.853-.287-1.462-1.106-1.462-2.09H59.13c0 .738.081 1.434.244 2.09.933 3.32 3.938 5.738 7.512 5.738h8.08c2.883 0 5.604-1.557 7.025-4.098a8.157 8.157 0 001.097-4.099 7.9 7.9 0 00-1.097-4.057c-1.421-2.542-4.142-4.14-7.025-4.14zm36.559 1.025c-.447-3.197-1.99-6.148-4.385-8.28a13.281 13.281 0 00-7.878-3.36l-11.938-.041v5.738h11.248c.406.04.812.082 1.177.164a8.072 8.072 0 013.127 1.434c1.543 1.148 2.558 2.828 2.964 4.714a9.44 9.44 0 01.122 1.516 7.24 7.24 0 01-.162 1.64c-.65 3.155-3.208 5.614-6.375 6.106h-6.416V25.192h-5.685v17.296h12.547c5.969-.737 10.801-5.45 11.654-11.476.081-.655.163-1.311.163-2.008a9.84 9.84 0 00-.163-1.885z" fill="#fff"/><path d="M22.23 58.737h7.107L14.717 29.89l7.31-15.067H13.42a3.37 3.37 0 00-3.027 1.906l-5.15 10.619a5.705 5.705 0 00.044 5.066l11.702 23.087a5.881 5.881 0 005.242 3.236z" fill="#2D9CDB"/><path d="M22.23 58.737h7.107L14.717 29.89l7.31-15.067H13.42a3.37 3.37 0 00-3.027 1.906l-5.15 10.619a5.705 5.705 0 00.044 5.066l11.702 23.087a5.881 5.881 0 005.242 3.236z" fill="url(#paint0_linear)"/><path d="M16.986 55.5c-5.828-11.5-6.284-17.339-2.27-25.61l7.31-15.067h-8.61c-1.286 0-2.46.74-3.026 1.906L5.241 27.348a5.705 5.705 0 00.045 5.066l11.7 23.085z" fill="#56CCF2"/><path d="M16.986 55.5c-5.828-11.5-6.284-17.339-2.27-25.61l7.31-15.067h-8.61c-1.286 0-2.46.74-3.026 1.906L5.241 27.348a5.705 5.705 0 00.045 5.066l11.7 23.085z" fill="#FCFCFC"/><path opacity=".32" d="M5.283 32.412l3.302 6.515c-.226-3.733.667-7.135 2.589-11.093l6.314-13.01H13.42a3.369 3.369 0 00-3.027 1.905l-5.15 10.619a5.707 5.707 0 00.041 5.064z" fill="#4F4F4F" fill-opacity=".3"/><path d="M120.837 2.254h-7.107L128.35 31.1l-7.31 15.068h8.608c1.287 0 2.462-.74 3.027-1.907l5.151-10.618a5.705 5.705 0 00-.044-5.067L126.08 5.49a5.884 5.884 0 00-5.243-3.235z" fill="#56CCF2"/><path d="M120.837 2.254h-7.107L128.35 31.1l-7.31 15.068h8.608c1.287 0 2.462-.74 3.027-1.907l5.151-10.618a5.705 5.705 0 00-.044-5.067L126.08 5.49a5.884 5.884 0 00-5.243-3.235z" fill="url(#paint1_linear)"/><path d="M126.082 5.492c5.828 11.499 6.283 17.337 2.27 25.608l-7.31 15.068h8.609c1.286 0 2.461-.74 3.026-1.907l5.149-10.618a5.705 5.705 0 00-.044-5.067l-11.7-23.084z" fill="#2D9CDB"/><path d="M126.082 5.492c5.828 11.499 6.283 17.337 2.27 25.608l-7.31 15.068h8.609c1.286 0 2.461-.74 3.026-1.907l5.149-10.618a5.705 5.705 0 00-.044-5.067l-11.7-23.084z" fill="#FCFCFC"/><path opacity=".32" d="M137.784 28.579l-3.301-6.515c.225 3.733-.668 7.135-2.589 11.093l-6.315 13.01h4.069a3.365 3.365 0 003.027-1.906l5.151-10.618a5.707 5.707 0 00-.042-5.064z" fill="#4F4F4F" fill-opacity=".3"/><defs><linearGradient id="paint0_linear" x1="16.565" y1="31.145" x2="31.252" y2="51.145" gradientUnits="userSpaceOnUse"><stop stop-color="#292929"/><stop offset="1" stop-color="#B5B7B8"/></linearGradient><linearGradient id="paint1_linear" x1="126.503" y1="29.846" x2="111.816" y2="9.846" gradientUnits="userSpaceOnUse"><stop stop-color="#292929"/><stop offset="1" stop-color="#B5B7B8"/></linearGradient></defs></svg>