<svg width="17" height="15" viewBox="0 0 17 15" fill="none" xmlns="http://www.w3.org/2000/svg">
<path fill-rule="evenodd" clip-rule="evenodd" d="M2.31816 0.524597H14.6817C15.9523 0.524597 16.9897 1.56543 16.9998 2.84538C17 2.85619 17.0001 2.86701 16.9999 2.87781V12.2223C16.9999 13.5108 15.9585 14.5618 14.6817 14.5618H2.31816C1.04141 14.5618 0 13.5108 0 12.2223V2.86413C0 1.5756 1.04141 0.524597 2.31816 0.524597ZM15.372 2.51628C15.2443 2.26124 14.9815 2.08427 14.6817 2.08427H2.31813C2.01838 2.08427 1.75562 2.26119 1.62781 2.51617L8.5 7.37105L15.372 2.51628ZM1.54541 4.3618L8.05687 8.96184C8.32294 9.1498 8.67706 9.1498 8.94313 8.96184L15.4544 4.36194V12.2222C15.4544 12.6494 15.1049 13.0021 14.6817 13.0021H2.31813C1.8949 13.0021 1.54541 12.6494 1.54541 12.2222V4.3618Z" fill="#2D363B"/>
</svg>
