<svg width="14" height="15" viewBox="0 0 14 15" fill="none" xmlns="http://www.w3.org/2000/svg">
<path fill-rule="evenodd" clip-rule="evenodd" d="M13.378 14.1555C13.7761 13.7899 14.0018 13.2733 13.9996 12.7325L13.9996 10.8217C14.0193 9.85059 13.3111 9.01693 12.3492 8.88112C11.7773 8.80559 11.2213 8.66696 10.6862 8.46711C9.98647 8.20383 9.196 8.37257 8.66334 8.89977L8.20217 9.36136C8.20216 9.36136 8.20216 9.36135 8.20215 9.36135L8.20214 9.36136C7.02232 8.6086 6.02117 7.60654 5.2691 6.42564L5.72775 5.96657C6.25699 5.4309 6.42558 4.6397 6.162 3.93787C5.96287 3.40373 5.82437 2.84725 5.74969 2.28051C5.61409 1.32008 4.7932 0.613471 3.83009 0.622958L1.9176 0.622927C1.37838 0.623435 0.864784 0.850501 0.501658 1.24866C0.138533 1.64682 -0.0406813 2.1794 0.00779394 2.71631C0.229327 4.80508 0.936005 6.80263 2.07156 8.55712C3.10089 10.1785 4.47829 11.5572 6.10292 12.5904C7.84291 13.7199 9.82899 14.427 11.8966 14.6519C12.4462 14.7017 12.9799 14.5211 13.378 14.1555ZM8.20214 9.36136L7.84851 9.71531L8.61692 9.61148C8.47637 9.53149 8.33808 9.44808 8.20217 9.36136L8.20216 9.36137C8.20215 9.36137 8.20215 9.36136 8.20214 9.36136ZM12.7205 10.8146C12.7287 10.4738 12.4922 10.1944 12.1763 10.1497C11.5144 10.0624 10.8646 9.90033 10.2376 9.66618C10.0039 9.57824 9.74041 9.63449 9.5654 9.80769L8.75311 10.6207C8.54952 10.8245 8.23499 10.867 7.9847 10.7246C6.28336 9.75626 4.87467 8.3463 3.90726 6.64341C3.76494 6.39289 3.80741 6.07807 4.011 5.8743L4.82076 5.06381C4.99634 4.8861 5.05253 4.62236 4.96413 4.38698C4.73073 3.76092 4.56884 3.11045 4.48235 2.45386C4.43742 2.13568 4.16379 1.90014 3.83646 1.90333L1.91827 1.90333C1.73873 1.9035 1.56753 1.97919 1.44649 2.11191C1.32545 2.24463 1.26571 2.42216 1.28089 2.59114C1.48022 4.46994 2.11892 6.27533 3.14826 7.86576C4.0799 9.33322 5.32292 10.5774 6.79402 11.5131C8.37112 12.5367 10.1661 13.1759 12.0233 13.3779C12.2027 13.3942 12.3806 13.334 12.5133 13.2121C12.646 13.0902 12.7212 12.918 12.7205 12.7352V10.8146Z" fill="#2D363B"/>
</svg>
