<svg width="32" height="32" fill="none" xmlns="http://www.w3.org/2000/svg"><path d="M19.499.58a1.093 1.093 0 01.774.319l10.828 10.828a1.094 1.094 0 010 1.546c-1.05 1.05-2.345 1.287-3.287 1.287-.388 0-.733-.04-1.007-.086l-6.855 6.856c.18.727.297 1.469.35 2.216.1 1.536-.07 3.69-1.575 5.195a1.094 1.094 0 01-1.547 0l-6.188-6.186-6.961 6.96c-.427.427-2.667 1.974-3.093 1.547-.427-.426 1.12-2.669 1.546-3.093l6.961-6.96L3.26 14.82a1.094 1.094 0 010-1.547c1.505-1.505 3.66-1.677 5.195-1.575.748.053 1.489.17 2.216.35l6.856-6.853a6.076 6.076 0 01-.088-1.008c0-.941.236-2.236 1.289-3.288a1.09 1.09 0 01.772-.32zm.267 4.62v-.005.004zm0-.005v.004a1.094 1.094 0 01-.267 1.116l-7.733 7.73a1.094 1.094 0 01-1.118.263h-.004l-.03-.009a10.77 10.77 0 00-2.303-.42c-.924-.06-1.83.018-2.572.329l12.054 12.05c.308-.743.387-1.647.326-2.57a10.779 10.779 0 00-.42-2.305l-.01-.029v-.002a1.094 1.094 0 01.263-1.12l7.735-7.733a1.093 1.093 0 011.164-.252l.21.049c.19.037.455.074.753.074.249 0 .503-.024.75-.087l-8.849-8.847a3.032 3.032 0 00-.087.75c.001.34.047.679.136 1.007l.002.002z" fill="#FCFCFC"/></svg>