<svg width="29" height="29" fill="none" xmlns="http://www.w3.org/2000/svg"><path d="M28.09 26.206l-8.877-8.876a10.162 10.162 0 002.123-6.248c0-2.741-1.07-5.311-3.005-7.25A10.178 10.178 0 0011.082.829c-2.738 0-5.315 1.07-7.25 3.005a10.172 10.172 0 00-3.004 7.249c0 2.738 1.07 5.315 3.005 7.25a10.172 10.172 0 007.249 3.004c2.29 0 4.464-.745 6.245-2.12l8.876 8.874a.28.28 0 00.397 0l1.49-1.487a.28.28 0 000-.397zm-11.594-9.71a7.615 7.615 0 01-5.414 2.242 7.615 7.615 0 01-5.414-2.242 7.615 7.615 0 01-2.242-5.414 7.61 7.61 0 012.242-5.414 7.615 7.615 0 015.414-2.242c2.044 0 3.968.793 5.414 2.242a7.615 7.615 0 012.242 5.414 7.61 7.61 0 01-2.242 5.414z" fill="#162025"/></svg>