<svg width="91" height="91" fill="none" xmlns="http://www.w3.org/2000/svg"><path d="M45.5 61.645c8.093 0 14.677-6.584 14.677-14.677 0-8.094-6.584-14.678-14.677-14.678s-14.677 6.584-14.677 14.678c0 8.093 6.584 14.677 14.677 14.677zm0-26.42c6.474 0 11.742 5.268 11.742 11.743 0 6.474-5.268 11.742-11.742 11.742-6.474 0-11.742-5.268-11.742-11.742 0-6.475 5.268-11.742 11.742-11.742zm38.161 4.404H71.92v-2.935h-2.935v2.935H64.67c-2.624-6.83-8.783-11.902-16.235-12.975V1.66L28.91 14.677H18.209l-6.467 11.857V0H8.806v33.758h20.977a20.655 20.655 0 00-2.82 4.403H7.339C3.292 38.161 0 41.454 0 45.5v29.355c0 4.046 3.292 7.339 7.339 7.339h10.274v5.87h-5.871V91h41.097v-2.936h-5.871v-5.87h10.274c4.046 0 7.339-3.293 7.339-7.34V54.55c.032-.08.058-.163.09-.243h4.313v2.935h2.935v-2.935h11.742c4.047 0 7.339-3.293 7.339-7.34 0-4.046-3.292-7.338-7.339-7.338zM45.5 26.419c-2.04 0-4.008.308-5.871.866V11.06L45.5 7.145V26.42zm-12.67 4.404h-2.007V16.93l5.87-3.915V28.43a20.538 20.538 0 00-3.862 2.393zm-10.814-13.21h5.871v13.21h-5.87v-13.21zm-2.935 1.598v11.612h-6.334l6.334-11.612zM45.5 29.355c9.712 0 17.613 7.9 17.613 17.613 0 9.712-7.9 17.613-17.613 17.613-9.712 0-17.613-7.9-17.613-17.613s7.9-17.613 17.613-17.613zm-1.468 58.71H20.548v-5.871h23.484v5.87zm13.21-8.807H7.339a4.409 4.409 0 01-4.404-4.403v-1.468h58.71v1.468a4.409 4.409 0 01-4.403 4.403zm4.403-8.806H2.935V45.5a4.409 4.409 0 014.404-4.403h18.478a20.43 20.43 0 00-.865 5.87c0 11.332 9.217 20.55 20.548 20.55 6.549 0 12.38-3.092 16.145-7.88v10.815zm3.916-19.081c.311-1.42.487-2.892.487-4.403 0-1.512-.176-2.983-.487-4.404h3.423v8.807H65.56zm18.1 0H71.92v-8.806h11.742a4.409 4.409 0 014.403 4.403 4.409 4.409 0 01-4.403 4.403zm-77.79-7.339h16.145v2.936H5.871v-2.936zm0 5.871h16.145v2.936H5.871v-2.936zm0 5.871h16.145v2.936H5.871v-2.936z" fill="#56CCF2"/></svg>