<svg width="91" height="91" fill="none" xmlns="http://www.w3.org/2000/svg"><g clip-path="url(#clip0)"><path d="M49.903 0H11.742C7.696 0 4.403 3.292 4.403 7.339V83.66c0 4.047 3.293 7.339 7.339 7.339h38.161c4.047 0 7.339-3.292 7.339-7.339V65.173c.224.068.448.143.674.202l1.203 3.609h7.986l1.204-3.61a20.244 20.244 0 005.175-2.15l3.41 1.704 5.647-5.647-1.705-3.41a20.433 20.433 0 002.152-5.174l3.609-1.203v-7.987l-3.608-1.203a20.36 20.36 0 00-2.151-5.174l1.705-3.41-5.648-5.647-3.41 1.705a20.32 20.32 0 00-5.175-2.151l-1.203-3.61H59.12l-1.203 3.608c-.227.059-.45.134-.674.202V7.339C57.242 3.292 53.95 0 49.903 0zM11.742 2.935h38.161a4.409 4.409 0 014.403 4.404v1.467H7.34V7.34a4.409 4.409 0 014.403-4.404zm38.161 85.13H11.742a4.409 4.409 0 01-4.403-4.404v-4.403h46.967v4.403a4.409 4.409 0 01-4.403 4.403zm4.403-11.742H7.34V11.742h46.967v15.213c-.53.254-1.055.523-1.564.822l-1.371-.685V14.677H10.274v58.71h41.097v-9.479l1.37-.685c.512.3 1.036.568 1.565.822v12.278zm-8.918-41.194a20.408 20.408 0 00-2.151 5.174l-3.608 1.203v7.987l3.608 1.203a20.359 20.359 0 002.151 5.174l-1.705 3.41 4.752 4.753v6.419H13.21v-52.84h35.225v9.355l-4.752 4.75 1.705 3.412zm13.974-6.833l.817-.177 1.057-3.167h3.755l1.057 3.167.817.177a17.477 17.477 0 015.753 2.392l.703.453 2.996-1.499 2.655 2.655-1.498 2.995.451.703a17.454 17.454 0 012.392 5.755l.177.816 3.167 1.057v3.755l-3.167 1.057-.177.817a17.483 17.483 0 01-2.392 5.755l-.451.703 1.498 2.994-2.655 2.655-2.996-1.498-.703.453a17.488 17.488 0 01-5.753 2.391l-.817.177-1.058 3.166h-3.755l-1.058-3.167-.816-.177a17.476 17.476 0 01-5.753-2.392l-.703-.453-2.996 1.499-2.655-2.655 1.498-2.995-.451-.703a17.452 17.452 0 01-2.392-5.755l-.177-.816-3.167-1.057v-3.755l3.167-1.057.177-.817a17.48 17.48 0 012.392-5.755l.451-.703-1.498-2.994 2.655-2.655 2.996 1.498.703-.453a17.51 17.51 0 015.755-2.39zM48.435 45.5c0 8.093 6.584 14.677 14.678 14.677 8.093 0 14.677-6.584 14.677-14.677s-6.584-14.677-14.677-14.677S48.435 37.407 48.435 45.5zm14.678-11.742c6.474 0 11.742 5.268 11.742 11.742 0 6.474-5.268 11.742-11.742 11.742-6.474 0-11.742-5.268-11.742-11.742 0-6.474 5.267-11.742 11.742-11.742zm0 17.613a5.877 5.877 0 005.87-5.871 5.877 5.877 0 00-5.87-5.871 5.877 5.877 0 00-5.871 5.871 5.877 5.877 0 005.87 5.871zm0-8.806a2.938 2.938 0 012.935 2.935 2.938 2.938 0 01-2.935 2.935 2.938 2.938 0 01-2.936-2.935 2.938 2.938 0 012.936-2.935zM26.419 82.194h8.807v2.935h-8.807v-2.935zm2.506-49.474l8.376 8.377H16.145V38.16h14.07l-3.366-3.365 2.076-2.076zm-12.78 17.183h21.156l-8.376 8.377-2.076-2.076 3.366-3.365h-14.07v-2.936zm20.549-5.87v2.935h-2.936v-2.936h2.935zm-5.872 0v2.935h-2.935v-2.936h2.936zm-5.87 0v2.935h-2.936v-2.936h2.936z" fill="#56CCF2"/></g><defs><clipPath id="clip0"><path fill="#fff" d="M0 0h91v91H0z"/></clipPath></defs></svg>