<svg width="91" height="91" fill="none" xmlns="http://www.w3.org/2000/svg"><path d="M83.661 23.484h-8.259C72.097 10.026 59.963 0 45.5 0 31.037 0 18.903 10.026 15.598 23.484h-8.26C3.293 23.484 0 26.776 0 30.823v44.032c0 4.046 3.292 7.339 7.339 7.339h19.08v5.87h-5.87V91h49.903v-2.936H64.58v-5.87h19.08c4.047 0 7.339-3.293 7.339-7.34v-44.03c0-4.047-3.292-7.34-7.339-7.34zM45.5 2.935c15.378 0 27.887 12.51 27.887 27.888 0 15.377-12.51 27.887-27.887 27.887-15.378 0-27.887-12.51-27.887-27.887 0-15.378 12.51-27.888 27.887-27.888zM7.339 26.42h7.691c-.208 1.443-.353 2.905-.353 4.404 0 16.995 13.826 30.822 30.823 30.822s30.823-13.827 30.823-30.822c0-1.499-.144-2.961-.353-4.404h7.691a4.409 4.409 0 014.403 4.404v39.629H2.935v-39.63A4.409 4.409 0 017.34 26.42zm54.306 61.645h-32.29v-5.87h32.29v5.87zm22.016-8.806H7.34a4.409 4.409 0 01-4.404-4.403v-1.468h85.13v1.468a4.409 4.409 0 01-4.404 4.403zM53.39 40.81l13.245-10.596L53.39 19.619l1.833-2.292 16.11 12.887-16.11 12.889-1.833-2.293zm-17.613 2.293l-16.11-12.889 16.11-12.887 1.833 2.292-13.244 10.595L37.609 40.81l-1.833 2.293zm5.92 2.87l-2.78-.944 10.388-30.573 2.78.945-10.388 30.572zM20.548 67.516H5.871v-2.935h14.677v2.935zm0-5.87H5.871V58.71h14.677v2.935zm0-5.872H5.871V52.84h14.677v2.935zM85.13 67.516H70.452v-2.935h14.677v2.935zm0-5.87H70.452V58.71h14.677v2.935zm0-5.872H70.452V52.84h14.677v2.935z" fill="#56CCF2"/></svg>