<svg width="45" height="45" viewBox="0 0 45 45" fill="none" xmlns="http://www.w3.org/2000/svg">
<path d="M9.855 0H35.145C40.5879 0 45 4.41211 45 9.855V35.145C45 40.5879 40.5879 45 35.145 45H9.855C4.41211 45 0 40.5879 0 35.145V9.855C0 4.41211 4.41211 0 9.855 0Z" fill="url(#paint0_linear)"/>
<path d="M14.4215 32.6619L14.4257 32.6633L12.8871 35.3282C12.3255 36.3009 11.0816 36.6342 10.1089 36.0726C9.13627 35.511 8.80281 34.2672 9.36443 33.2944L10.4979 31.3313L10.6067 31.1428C10.8009 30.8637 11.2803 30.3817 12.2392 30.4724C12.2392 30.4724 14.4957 30.7173 14.659 31.8901C14.659 31.8901 14.6811 32.2759 14.4215 32.6619ZM36.2435 25.8557H31.4457C31.1189 25.8337 30.9764 25.717 30.9201 25.6491L30.9166 25.643L25.7808 16.7474L25.7741 16.7518L25.4662 16.3102C24.9613 15.5382 24.1598 17.5126 24.1598 17.5126C23.2026 19.7126 24.2956 22.2138 24.6766 22.9699L31.8101 35.3255C32.3716 36.2981 33.6154 36.6316 34.5883 36.0698C35.5609 35.5082 35.8944 34.2643 35.3326 33.2916L33.5489 30.202C33.5143 30.1272 33.4542 29.924 33.82 29.9231H36.2435C37.3667 29.9231 38.2773 29.0125 38.2773 27.8893C38.2773 26.766 37.3667 25.8555 36.2435 25.8555V25.8557ZM26.9246 28.6204C26.9246 28.6204 27.1807 29.9231 26.1899 29.9231H8.45371C7.33047 29.9231 6.41992 29.0125 6.41992 27.8893C6.41992 26.766 7.33047 25.8555 8.45371 25.8555H13.0135C13.7496 25.813 13.924 25.3879 13.924 25.3879L13.9282 25.39L19.8802 15.0808L19.8784 15.0805C19.9869 14.8813 19.8965 14.693 19.8809 14.6633L17.9151 11.2586C17.3535 10.286 17.6868 9.04201 18.6596 8.48057C19.6323 7.91895 20.8762 8.25205 21.4378 9.22483L22.3494 10.8039L23.2594 9.22764C23.821 8.25504 25.0649 7.92158 26.0376 8.48338C27.0104 9.045 27.3437 10.2887 26.7821 11.2614L18.4996 25.6069C18.4634 25.6943 18.4523 25.8314 18.7218 25.8555H23.6725L23.6736 25.9038C23.6736 25.9038 26.5349 25.9483 26.9246 28.6204Z" fill="white"/>
<defs>
<linearGradient id="paint0_linear" x1="22.5" y1="0" x2="22.5" y2="45" gradientUnits="userSpaceOnUse">
<stop stop-color="#17C9FB"/>
<stop offset="1" stop-color="#1A74E8"/>
</linearGradient>
</defs>
</svg>
