<svg width="32" height="30" viewBox="0 0 32 30" fill="none" xmlns="http://www.w3.org/2000/svg">
<path d="M22.3352 17.5C22.4596 16.5375 22.553 15.575 22.553 14.5833C22.553 13.5917 22.4596 12.6292 22.3352 11.6667H27.5924C27.8412 12.6 27.9968 13.5771 27.9968 14.5833C27.9968 15.5896 27.8412 16.5667 27.5924 17.5H22.3352ZM19.5822 25.6083C20.5154 23.9896 21.2309 22.2396 21.7286 20.4167H26.317C24.8101 22.8496 22.4194 24.6925 19.5822 25.6083ZM19.1933 17.5H11.9142C11.7586 16.5375 11.6653 15.575 11.6653 14.5833C11.6653 13.5917 11.7586 12.6146 11.9142 11.6667H19.1933C19.3333 12.6146 19.4422 13.5917 19.4422 14.5833C19.4422 15.575 19.3333 16.5375 19.1933 17.5ZM15.5538 26.1917C14.2628 24.4417 13.2207 22.5021 12.583 20.4167H18.5245C17.8868 22.5021 16.8447 24.4417 15.5538 26.1917ZM9.33226 8.75H4.79056C6.28194 6.31052 8.6709 4.46467 11.5098 3.55833C10.5766 5.17708 9.87664 6.92708 9.33226 8.75ZM4.79056 20.4167H9.33226C9.87664 22.2396 10.5766 23.9896 11.5098 25.6083C8.67686 24.692 6.29126 22.8488 4.79056 20.4167ZM3.51515 17.5C3.26629 16.5667 3.11075 15.5896 3.11075 14.5833C3.11075 13.5771 3.26629 12.6 3.51515 11.6667H8.77232C8.64789 12.6292 8.55457 13.5917 8.55457 14.5833C8.55457 15.575 8.64789 16.5375 8.77232 17.5H3.51515ZM15.5538 2.96042C16.8447 4.71042 17.8868 6.66458 18.5245 8.75H12.583C13.2207 6.66458 14.2628 4.71042 15.5538 2.96042ZM26.317 8.75H21.7286C21.2418 6.94379 20.521 5.20027 19.5822 3.55833C22.4441 4.47708 24.8238 6.32917 26.317 8.75ZM15.5538 0C6.95253 0 0 6.5625 0 14.5833C0 18.4511 1.6387 22.1604 4.55559 24.8953C5.99989 26.2495 7.71452 27.3237 9.60159 28.0566C11.4887 28.7895 13.5112 29.1667 15.5538 29.1667C19.6789 29.1667 23.635 27.6302 26.5519 24.8953C29.4688 22.1604 31.1075 18.4511 31.1075 14.5833C31.1075 12.6682 30.7052 10.7719 29.9236 9.00253C29.1419 7.2332 27.9962 5.62555 26.5519 4.27136C25.1076 2.91717 23.393 1.84297 21.5059 1.11009C19.6189 0.377209 17.5963 0 15.5538 0Z" fill="white"/>
</svg>
