<svg width="45" height="45" viewBox="0 0 45 45" fill="none" xmlns="http://www.w3.org/2000/svg">
<path d="M33.1868 29.3773C38.891 26.4501 43.2151 24.2197 43.5879 24.0463C44.7802 23.4537 46.0115 21.8853 43.5879 20.667C42.8053 20.2838 38.5922 18.1228 33.1868 15.336L25.6934 22.4087L33.1868 29.3771V29.3773Z" fill="#FFD900"/>
<path d="M25.693 22.4087L1.83301 44.8829C2.39306 44.9522 3.02533 44.8134 3.77077 44.4304C5.33582 43.6298 21.9268 35.1621 33.1864 29.3789L25.693 22.4087Z" fill="#F43249"/>
<path d="M25.693 22.4087L33.1864 15.3708C33.1864 15.3708 5.44896 1.22354 3.77074 0.388414C3.13847 0.038432 2.42993 -0.0655278 1.7959 0.0384321L25.693 22.4087Z" fill="#00EE76"/>
<path d="M25.6933 22.4087L1.79629 0.0384331C0.826437 0.247995 0.00683594 1.0488 0.00683594 2.68654V42.2348C0.00683594 43.7338 0.641043 44.8134 1.83337 44.9175L25.6933 22.4087Z" fill="#00D3FF"/>
</svg>
