<svg width="32" height="32" viewBox="0 0 32 32" fill="none" xmlns="http://www.w3.org/2000/svg">
<path d="M19.4989 0.579378C19.6426 0.579121 19.785 0.607196 19.9178 0.661996C20.0507 0.716797 20.1715 0.797249 20.2732 0.898753L31.1014 11.7269C31.3064 11.932 31.4216 12.2101 31.4216 12.5002C31.4216 12.7902 31.3064 13.0683 31.1014 13.2734C30.0514 14.3234 28.7564 14.5597 27.8136 14.5597C27.4264 14.5597 27.0807 14.5203 26.8073 14.4744L19.9517 21.33C20.1322 22.0571 20.2493 22.7986 20.3017 23.5459C20.4023 25.0816 20.2317 27.2363 18.7267 28.7413C18.5216 28.9463 18.2434 29.0615 17.9534 29.0615C17.6634 29.0615 17.3852 28.9463 17.1801 28.7413L10.9917 22.555L4.03105 29.5156C3.60449 29.9422 1.36449 31.4888 0.937929 31.0622C0.511367 30.6356 2.05793 28.3934 2.48449 27.9691L9.44512 21.0084L3.25887 14.82C3.05382 14.6149 2.93863 14.3367 2.93863 14.0467C2.93863 13.7567 3.05382 13.4785 3.25887 13.2734C4.76387 11.7684 6.91855 11.5956 8.45418 11.6984C9.20156 11.7508 9.94298 11.8679 10.6701 12.0484L17.5257 5.195C17.4685 4.86188 17.4393 4.52456 17.4382 4.18657C17.4382 3.24594 17.6745 1.95094 18.7267 0.898753C18.9317 0.69429 19.2093 0.579439 19.4989 0.579378ZM19.7657 5.19938V5.195V5.19938ZM19.7657 5.195V5.19938C19.8289 5.39181 19.8374 5.598 19.7903 5.79498C19.7432 5.99196 19.6423 6.17199 19.4989 6.315L11.7661 14.0456C11.6224 14.1887 11.4418 14.289 11.2444 14.3354C11.047 14.3817 10.8406 14.3723 10.6482 14.3081H10.6439L10.6132 14.2994C10.4051 14.237 10.195 14.1816 9.98324 14.1331C9.43295 14.0048 8.87341 13.9199 8.3098 13.8794C7.38668 13.8181 6.48105 13.8969 5.73949 14.2075L17.7926 26.2584C18.1011 25.5147 18.1798 24.6113 18.1186 23.6881C18.0628 22.9066 17.922 22.1335 17.6986 21.3825L17.6898 21.3541V21.3519C17.6252 21.1592 17.6156 20.9524 17.6619 20.7546C17.7083 20.5568 17.8088 20.3758 17.9523 20.2319L25.6873 12.4991C25.8363 12.3492 26.0254 12.2457 26.232 12.2011C26.4385 12.1564 26.6535 12.1725 26.8511 12.2475L27.0611 12.2956C27.2514 12.3328 27.5161 12.37 27.8136 12.37C28.0629 12.37 28.3167 12.3459 28.5639 12.2825L19.7154 3.43625C19.652 3.68344 19.6279 3.93938 19.6279 4.18657C19.629 4.52647 19.6746 4.86476 19.7636 5.19282L19.7657 5.195Z" fill="#FCFCFC"/>
</svg>
