<svg width="91" height="91" viewBox="0 0 91 91" fill="none" xmlns="http://www.w3.org/2000/svg">
<path d="M83.6613 23.4839H75.4024C72.0971 10.0262 59.9631 0 45.5 0C31.0369 0 18.9029 10.0262 15.5976 23.4839H7.33871C3.29239 23.4839 0 26.7763 0 30.8226V74.8548C0 78.9012 3.29239 82.1936 7.33871 82.1936H26.4194V88.0645H20.5484V91H70.4516V88.0645H64.5806V82.1936H83.6613C87.7076 82.1936 91 78.9012 91 74.8548V30.8226C91 26.7763 87.7076 23.4839 83.6613 23.4839ZM45.5 2.93548C60.8776 2.93548 73.3871 15.445 73.3871 30.8226C73.3871 46.2002 60.8776 58.7097 45.5 58.7097C30.1224 58.7097 17.6129 46.2002 17.6129 30.8226C17.6129 15.445 30.1224 2.93548 45.5 2.93548ZM7.33871 26.4194H15.03C14.8215 27.862 14.6774 29.324 14.6774 30.8226C14.6774 47.8177 28.5034 61.6452 45.5 61.6452C62.4966 61.6452 76.3226 47.8177 76.3226 30.8226C76.3226 29.324 76.1785 27.862 75.97 26.4194H83.6613C86.0887 26.4194 88.0645 28.3952 88.0645 30.8226V70.4516H2.93548V30.8226C2.93548 28.3952 4.91135 26.4194 7.33871 26.4194ZM61.6452 88.0645H29.3548V82.1936H61.6452V88.0645ZM83.6613 79.2581H7.33871C4.91135 79.2581 2.93548 77.2822 2.93548 74.8548V73.3871H88.0645V74.8548C88.0645 77.2822 86.0887 79.2581 83.6613 79.2581ZM53.3891 40.8094L66.6339 30.2134L53.3891 19.6181L55.2224 17.3255L71.3324 30.2134L55.2224 43.102L53.3891 40.8094ZM35.7762 43.102L19.6662 30.2134L35.7762 17.3255L37.6095 19.6181L24.3647 30.2134L37.6095 40.8094L35.7762 43.102ZM41.6959 45.9723L38.9159 45.0277L49.3041 14.4545L52.0841 15.3998L41.6959 45.9723ZM20.5484 67.5161H5.87097V64.5806H20.5484V67.5161ZM20.5484 61.6452H5.87097V58.7097H20.5484V61.6452ZM20.5484 55.7742H5.87097V52.8387H20.5484V55.7742ZM85.129 67.5161H70.4516V64.5806H85.129V67.5161ZM85.129 61.6452H70.4516V58.7097H85.129V61.6452ZM85.129 55.7742H70.4516V52.8387H85.129V55.7742Z" fill="#56CCF2"/>
</svg>
