<svg width="91" height="91" viewBox="0 0 91 91" fill="none" xmlns="http://www.w3.org/2000/svg">
<path d="M45.5 61.6452C53.5934 61.6452 60.1774 55.0611 60.1774 46.9677C60.1774 38.8744 53.5934 32.2903 45.5 32.2903C37.4066 32.2903 30.8226 38.8744 30.8226 46.9677C30.8226 55.0611 37.4066 61.6452 45.5 61.6452ZM45.5 35.2258C51.9744 35.2258 57.2419 40.4933 57.2419 46.9677C57.2419 53.4421 51.9744 58.7097 45.5 58.7097C39.0256 58.7097 33.7581 53.4421 33.7581 46.9677C33.7581 40.4933 39.0256 35.2258 45.5 35.2258ZM83.6613 39.629H71.9194V36.6936H68.9839V39.629H64.6702C62.0458 32.7984 55.8874 27.7273 48.4355 26.6544V1.65981L28.9098 14.6774H18.2085L11.7419 26.534V0H8.80645V33.7581H29.7834C28.6618 35.0911 27.7215 36.5731 26.9626 38.1613H7.33871C3.29239 38.1613 0 41.4537 0 45.5V74.8548C0 78.9012 3.29239 82.1936 7.33871 82.1936H17.6129V88.0645H11.7419V91H52.8387V88.0645H46.9677V82.1936H57.2419C61.2883 82.1936 64.5806 78.9012 64.5806 74.8548V54.5501C64.6129 54.4691 64.6394 54.3874 64.6702 54.3065H68.9839V57.2419H71.9194V54.3065H83.6613C87.7076 54.3065 91 51.0141 91 46.9677C91 42.9214 87.7076 39.629 83.6613 39.629ZM45.5 26.4194C43.4596 26.4194 41.4917 26.7275 39.629 27.2851V11.0597L45.5 7.14521V26.4194ZM32.8307 30.8226H30.8226V16.9306L36.6936 13.0162V28.4303C35.3154 29.0875 34.0196 29.8873 32.8307 30.8226ZM22.0161 17.6129H27.8871V30.8226H22.0161V17.6129ZM19.0806 19.2111V30.8226H12.7474L19.0806 19.2111ZM45.5 29.3548C55.2123 29.3548 63.1129 37.2554 63.1129 46.9677C63.1129 56.6801 55.2123 64.5806 45.5 64.5806C35.7877 64.5806 27.8871 56.6801 27.8871 46.9677C27.8871 37.2554 35.7877 29.3548 45.5 29.3548ZM44.0323 88.0645H20.5484V82.1936H44.0323V88.0645ZM57.2419 79.2581H7.33871C4.91135 79.2581 2.93548 77.2822 2.93548 74.8548V73.3871H61.6452V74.8548C61.6452 77.2822 59.6693 79.2581 57.2419 79.2581ZM61.6452 70.4516H2.93548V45.5C2.93548 43.0726 4.91135 41.0968 7.33871 41.0968H25.8174C25.2598 42.9594 24.9516 44.9274 24.9516 46.9677C24.9516 58.299 34.1687 67.5161 45.5 67.5161C52.0489 67.5161 57.8805 64.4251 61.6452 59.6371V70.4516ZM65.5611 51.371C65.8721 49.9505 66.0484 48.4792 66.0484 46.9677C66.0484 45.4563 65.8721 43.985 65.5611 42.5645H68.9839V51.371H65.5611ZM83.6613 51.371H71.9194V42.5645H83.6613C86.0887 42.5645 88.0645 44.5404 88.0645 46.9677C88.0645 49.3951 86.0887 51.371 83.6613 51.371ZM5.87097 44.0323H22.0161V46.9677H5.87097V44.0323ZM5.87097 49.9032H22.0161V52.8387H5.87097V49.9032ZM5.87097 55.7742H22.0161V58.7097H5.87097V55.7742Z" fill="#56CCF2"/>
</svg>
