<svg width="91" height="91" viewBox="0 0 91 91" fill="none" xmlns="http://www.w3.org/2000/svg">
<g clip-path="url(#clip0)">
<path d="M49.9032 0H11.7419C7.69558 0 4.4032 3.29239 4.4032 7.33871V83.6613C4.4032 87.7076 7.69558 91 11.7419 91H49.9032C53.9495 91 57.2419 87.7076 57.2419 83.6613V65.1733C57.4662 65.2414 57.6898 65.3159 57.9156 65.3747L59.1189 68.9839H67.1054L68.3087 65.3747C70.1212 64.9024 71.8563 64.1815 73.4838 63.2233L76.8937 64.9282L82.5411 59.2809L80.8361 55.8709C81.7915 54.2434 82.5132 52.5083 82.9876 50.6973L86.5967 49.494V41.5074L82.989 40.3041C82.5153 38.4931 81.7943 36.758 80.8376 35.1305L82.5425 31.7206L76.8952 26.0732L73.4852 27.7782C71.8577 26.8214 70.1226 26.0997 68.3102 25.6267L67.1069 22.0161H59.1203L57.917 25.6253C57.6898 25.684 57.4677 25.7586 57.2433 25.8267V7.33871C57.2419 3.29239 53.9495 0 49.9032 0ZM11.7419 2.93548H49.9032C52.3306 2.93548 54.3064 4.91135 54.3064 7.33871V8.80645H7.33868V7.33871C7.33868 4.91135 9.31454 2.93548 11.7419 2.93548ZM49.9032 88.0645H11.7419C9.31454 88.0645 7.33868 86.0887 7.33868 83.6613V79.2581H54.3064V83.6613C54.3064 86.0887 52.3306 88.0645 49.9032 88.0645ZM54.3064 76.3226H7.33868V11.7419H54.3064V26.9554C53.7768 27.2091 53.2508 27.4779 52.7419 27.7767L51.3709 27.0916V14.6774H10.2742V73.3871H51.3709V63.9084L52.7419 63.2233C53.2529 63.5236 53.7768 63.7909 54.3064 64.0446V76.3226ZM45.3882 35.1291C44.4328 36.7566 43.7104 38.4917 43.2367 40.3027L39.629 41.506V49.4926L43.2367 50.6959C43.7104 52.5069 44.4314 54.2419 45.3882 55.8695L43.6832 59.2794L48.4355 64.0331V70.4516H13.2096V17.6129H48.4355V26.9669L43.6832 31.7177L45.3882 35.1291ZM59.3625 28.2963L60.1788 28.1193L61.2359 24.9516H64.9913L66.0484 28.1193L66.8646 28.2963C68.9057 28.7399 70.8407 29.5455 72.6181 30.6878L73.3211 31.1408L76.3168 29.6422L78.9721 32.2975L77.4735 35.2917L77.925 35.9948C79.0688 37.7721 79.8729 39.7086 80.3166 41.7497L80.4936 42.5659L83.6613 43.623V47.3784L80.4936 48.4355L80.3166 49.2518C79.8729 51.2929 79.0674 53.2293 77.925 55.0066L77.4735 55.7097L78.9721 58.7039L76.3168 61.3592L73.3211 59.8606L72.6181 60.3136C70.8407 61.456 68.9043 62.2615 66.8646 62.7051L66.0484 62.8821L64.9898 66.0484H61.2345L60.1774 62.8807L59.3611 62.7037C57.32 62.2601 55.385 61.4545 53.6077 60.3122L52.9046 59.8592L49.9089 61.3578L47.2537 58.7025L48.7522 55.7083L48.3007 55.0052C47.1569 53.2279 46.3528 51.2914 45.9092 49.2503L45.7322 48.434L42.5645 47.377V43.6216L45.7322 42.5645L45.9092 41.7482C46.3528 39.7071 47.1583 37.7707 48.3007 35.9934L48.7522 35.2903L47.2537 32.2961L49.9089 29.6408L52.9046 31.1393L53.6077 30.6864C55.385 29.5455 57.3215 28.7399 59.3625 28.2963ZM48.4355 45.5C48.4355 53.5934 55.0195 60.1774 63.1129 60.1774C71.2062 60.1774 77.7903 53.5934 77.7903 45.5C77.7903 37.4066 71.2062 30.8226 63.1129 30.8226C55.0195 30.8226 48.4355 37.4066 48.4355 45.5ZM63.1129 33.7581C69.5873 33.7581 74.8548 39.0256 74.8548 45.5C74.8548 51.9744 69.5873 57.2419 63.1129 57.2419C56.6385 57.2419 51.3709 51.9744 51.3709 45.5C51.3709 39.0256 56.6385 33.7581 63.1129 33.7581ZM63.1129 51.371C66.3508 51.371 68.9838 48.7379 68.9838 45.5C68.9838 42.2621 66.3508 39.629 63.1129 39.629C59.875 39.629 57.2419 42.2621 57.2419 45.5C57.2419 48.7379 59.875 51.371 63.1129 51.371ZM63.1129 42.5645C64.7318 42.5645 66.0484 43.881 66.0484 45.5C66.0484 47.119 64.7318 48.4355 63.1129 48.4355C61.4939 48.4355 60.1774 47.119 60.1774 45.5C60.1774 43.881 61.4939 42.5645 63.1129 42.5645ZM26.4193 82.1936H35.2258V85.129H26.4193V82.1936ZM28.9248 32.7203L37.3013 41.0968H16.1451V38.1613H30.2148L26.8493 34.7958L28.9248 32.7203ZM16.1451 49.9032H37.3013L28.9248 58.2797L26.8493 56.2042L30.2148 52.8387H16.1451V49.9032ZM36.6935 44.0323V46.9677H33.758V44.0323H36.6935ZM30.8225 44.0323V46.9677H27.8871V44.0323H30.8225ZM24.9516 44.0323V46.9677H22.0161V44.0323H24.9516Z" fill="#56CCF2"/>
</g>
<defs>
<clipPath id="clip0">
<rect width="91" height="91" fill="white"/>
</clipPath>
</defs>
</svg>
