<svg width="29" height="30" viewBox="0 0 29 30" fill="none" xmlns="http://www.w3.org/2000/svg">
<path d="M23.8577 20.6845C23.2303 20.6869 22.6098 20.816 22.0336 21.0641C21.4573 21.3123 20.9371 21.6742 20.5042 22.1284L9.14854 16.4459C9.42788 15.5989 9.42788 14.6846 9.14854 13.8376L20.5228 8.05265C21.3375 8.91119 22.4423 9.43615 23.6225 9.52548C24.8027 9.61482 25.974 9.26215 26.9086 8.53602C27.8433 7.8099 28.4746 6.76219 28.6798 5.59654C28.885 4.4309 28.6495 3.23058 28.0191 2.2289C27.3886 1.22722 26.4082 0.49574 25.2685 0.17663C24.1287 -0.14248 22.911 -0.0264194 21.8521 0.502253C20.7931 1.03092 19.9686 1.93444 19.5387 3.03718C19.1088 4.13993 19.1043 5.36312 19.526 6.46901L8.26357 12.1981C7.65531 11.4542 6.83186 10.9166 5.9061 10.6591C4.98034 10.4015 3.99759 10.4366 3.09256 10.7595C2.18752 11.0824 1.40451 11.6773 0.850854 12.4627C0.297198 13.2481 0 14.1855 0 15.1464C0 16.1073 0.297198 17.0447 0.850854 17.8301C1.40451 18.6155 2.18752 19.2104 3.09256 19.5333C3.99759 19.8562 4.98034 19.8913 5.9061 19.6338C6.83186 19.3762 7.65531 18.8387 8.26357 18.0948L19.4981 23.7493C19.3083 24.259 19.2105 24.7983 19.2093 25.3422C19.2093 26.2635 19.4825 27.164 19.9943 27.93C20.5061 28.6959 21.2335 29.2929 22.0846 29.6454C22.9357 29.998 23.8722 30.0902 24.7757 29.9105C25.6793 29.7308 26.5092 29.2872 27.1606 28.6358C27.812 27.9844 28.2556 27.1544 28.4353 26.2509C28.615 25.3474 28.5228 24.4109 28.1703 23.5598C27.8177 22.7087 27.2207 21.9813 26.4548 21.4695C25.6888 20.9577 24.7883 20.6845 23.8671 20.6845H23.8577Z" fill="white"/>
</svg>
